<?xml version="1.0" encoding="utf-8"?>
<!-- Generator: Adobe Illustrator 27.9.0, SVG Export Plug-In . SVG Version: 6.00 Build 0)  -->
<svg version="1.1" xmlns="http://www.w3.org/2000/svg" xmlns:xlink="http://www.w3.org/1999/xlink" x="0px" y="0px"
	 viewBox="0 0 400 400" style="enable-background:new 0 0 400 400;" xml:space="preserve">
<g id="play">
	<path class="logo" d="M196.57,355.51c70.21,0.41,139.69-50.08,154.62-119.83c0.1-0.44,0.14-0.9,0.18-1.35
		c0.21-2.26,1.19-4.41,1.15-6.7c-0.01-0.75,0.1-1.5,0.22-2.24c1.5-9.2,1.96-18.98,1.01-28.28c-0.08-0.75-0.1-1.5-0.02-2.25
		c0.3-2.68-1.03-5.18-0.62-7.78c0.1-1.04-0.79-1.63-0.67-2.62c0.07-0.59,0.18-1.23-0.01-1.8c-0.32-1.01-0.66-2.01-0.79-3.05
		c-1.57-12.19-5.59-24.08-10.03-35.54c-2.75-8.08-10.09-15.95-6.31-24.84c4.77-12.55,22.28-11.03,26.86,0.72
		c7.07,15.89,13.34,32.68,16.99,49.7c0.07,0.33,0.13,0.67,0.17,1.01c1.37,11.01,3.6,21.68,3.31,33.02
		c-0.42,8.35,0.24,16.76-1.45,24.87c-0.54,0.77-0.24,1.83-0.18,2.75c0.06,0.96-0.87,1.59-0.64,2.62c0.11,0.52,0.18,1.09-0.02,1.61
		c-0.33,0.88-0.68,1.75-0.84,2.68c-12.98,74.26-80.01,131.52-152.94,143.54c-97.85,16.72-192.73-52.44-212.69-149.17
		c-2.94-16.99-4.31-34.74-2.85-52.5c2.31-18.8,7.48-37.51,14.83-55.13C49.9,74.06,96.74,33.96,151.81,20.99l3.72-1.13
		c0.88-0.26,1.93,0.07,2.78-0.31c0.96-0.43,2.01-0.63,3.05-0.8c16.36-2.7,32.87-3.71,49.55-2.45c0.29,0.02,0.57,0.05,0.86,0.09
		c13.51,1.94,27.42,3.81,40.25,8.73c0.45,0.17,0.9,0.37,1.33,0.6c10.52,5.83,8.53,22.72-2.92,25.96c-6.43,2.07-12.33-1.58-18.5-2.78
		c-0.25-0.05-0.5-0.11-0.75-0.18c-4.11-1.17-8.24-1.75-12.36-2.68c-0.22-0.05-0.45-0.09-0.67-0.13
		C138.44,32.7,56.07,90.82,41.25,170.31c-2.72,19.24-3.86,39.5,1.43,58.56c0.18,0.65,0.29,1.31,0.37,1.98
		c0.35,3.17,1.36,6.32,2.54,9.27c0.14,0.35,0.26,0.7,0.36,1.05C64.44,306.25,128.56,356.16,196.57,355.51z"/>
</g>
<g id="circle">
	<path class="logo" d="M270.96,188.11c-14.38-8.39-28.74-16.69-43.1-25.1c-7.78-4.55-17.57,1.02-17.6,10.03
		c-0.1,31.19-0.82,62.32-0.63,93.53c0.01,0.97-0.11,1.95-0.34,2.9c-5.19,20.64-27.62,0.3-38.89-5.47c-0.26-0.13-0.5-0.27-0.74-0.42
		c-22.25-13.71-44.9-26.67-67.23-40.22c-17.85-9.6-34.81-19.14-9.57-34.54c14.93-9.92,29.39-20.58,44.4-30.41
		c3.22-1.76,6.63-1.6,9.52-0.25c7.52,3.5,8.6,13.72,2.41,19.24c-6.38,5.69-13.93,10.33-21.25,15.07
		c-7.19,4.67-7.09,15.25,0.21,19.75c13.46,8.3,27.33,16.44,41.11,24.51c7.73,4.53,17.48-0.97,17.6-9.93
		c0.44-31.46,0.54-63.07,0.6-94.55c0.06-4.6,2.81-8.89,7.93-10.34c9.98-2.57,18.68,7.64,27.41,11.67c0.36,0.16,0.71,0.34,1.05,0.54
		c18.12,10.72,36.29,21.37,54.56,31.82c11.87,7.19,24.16,13.95,35.95,21.25c1.21,0.75,2.29,1.71,3.14,2.85
		c8.84,11.87-8.66,19.9-17.28,26.19c-7.65,5.28-15.52,10.24-23.05,15.71c-0.19,0.14-0.38,0.26-0.58,0.38
		c-5.11,3.15-10.11,7.93-15.72,10.23c-3.18,1.31-6.81,1.29-9.85-0.34c-3.61-1.94-6.33-5.37-6.01-9.89
		c0.11-10.39,12.74-13.63,19.56-19.45c0.32-0.27,0.64-0.53,0.99-0.77c2.08-1.42,4.14-2.85,6.19-4.28
		C278.76,202.92,278.34,192.42,270.96,188.11z"/>
</g>
</svg>
